<svg width="96.000000" height="96.000000" viewBox="0 0 96 96" fill="none" xmlns="http://www.w3.org/2000/svg" xmlns:xlink="http://www.w3.org/1999/xlink">
	<desc>
			Created with Pixso.
	</desc>
	<defs/>
	<circle id="Oval" cx="48.000000" cy="48.000000" r="48.000000" fill="#FCB72B" fill-opacity="1.000000"/>
	<circle id="Oval" cx="48.000000" cy="48.000000" r="48.000000" stroke="#979797" stroke-opacity="0" stroke-width="0.000000"/>
	<path id="Combined Shape" d="M33.0109 24L53.7997 24C56.0066 24.0027 57.7948 25.791 57.7976 27.9978L57.7976 51.6541L63.1603 57.0183L62.0298 58.1489L54.1371 50.2561C53.188 49.2666 51.6471 49.1477 50.5575 49.9805C49.9917 50.4446 49.6482 51.126 49.6117 51.8574C49.6096 51.9001 49.6085 51.9431 49.6085 51.9858C49.6085 52.6711 49.8801 53.3311 50.3672 53.8186L55.9641 59.4155C56.1187 59.5701 56.1985 59.7749 56.1985 59.9814C56.1985 60.1348 56.1544 60.2893 56.0641 60.4246C54.0662 63.4141 53.0001 66.9297 53.0001 70.5249L53.0001 70.5439L53.0001 71.9744L33.0109 71.9744C30.804 71.9717 29.0157 70.1833 29.0129 67.9766L29.0129 27.9978C29.0157 25.791 30.804 24.0027 33.0109 24ZM30.6121 28.7974L56.1985 28.7974L56.1985 27.9978C56.1985 26.6733 55.1243 25.5991 53.7997 25.5991L33.0109 25.5991C31.6863 25.5991 30.6121 26.6733 30.6121 27.9978L30.6121 28.7974ZM55.2677 49.1243L56.1985 50.0549L56.1985 30.3965L30.6121 30.3965L30.6121 63.9788L50.6014 63.9788L50.6014 65.5779L30.6121 65.5779L30.6121 67.9766C30.6121 69.301 31.6863 70.3752 33.0109 70.3752L51.4066 70.3752C51.4321 66.7393 52.4604 63.1802 54.3778 60.0906L49.2366 54.949C48.4485 54.1606 48.009 53.0935 48.009 51.9846C48.009 51.9165 48.0106 51.8484 48.014 51.7803C48.0718 50.5986 48.6261 49.4963 49.5396 48.7456C51.2667 47.3938 53.7338 47.5571 55.2677 49.1243ZM37.0085 38.3921L33.8102 38.3921C32.9269 38.3921 32.2111 37.6763 32.2111 36.793L32.2111 33.5945C32.2111 32.7112 32.9269 31.9954 33.8102 31.9954L37.0085 31.9954C37.8918 31.9954 38.6077 32.7112 38.6077 33.5945L38.6077 36.793C38.6077 37.6763 37.8918 38.3921 37.0085 38.3921ZM45.0043 38.3921L41.8059 38.3921C40.9226 38.3921 40.2068 37.6763 40.2068 36.793L40.2068 33.5945C40.2068 32.7112 40.9226 31.9954 41.8059 31.9954L45.0043 31.9954C45.8876 31.9954 46.6034 32.7112 46.6034 33.5945L46.6034 36.793C46.6034 37.6763 45.8876 38.3921 45.0043 38.3921ZM53 38.3921L49.8018 38.3921C48.9183 38.3921 48.2025 37.6763 48.2025 36.793L48.2025 33.5945C48.2025 32.7112 48.9183 31.9954 49.8018 31.9954L53 31.9954C53.8833 31.9954 54.5991 32.7112 54.5991 33.5945L54.5991 36.793C54.5991 37.6763 53.8833 38.3921 53 38.3921ZM37.0085 33.5945L33.8102 33.5945L33.8102 36.793L37.0085 36.793L37.0085 33.5945ZM45.0043 33.5945L41.8059 33.5945L41.8059 36.793L45.0043 36.793L45.0043 33.5945ZM53 33.5945L49.8018 33.5945L49.8018 36.793L53 36.793L53 33.5945ZM37.0085 46.3879L33.8102 46.3879C32.9269 46.3879 32.2111 45.6721 32.2111 44.7888L32.2111 41.5903C32.2111 40.707 32.9269 39.9912 33.8102 39.9912L37.0085 39.9912C37.8918 39.9912 38.6077 40.707 38.6077 41.5903L38.6077 44.7888C38.6077 45.6721 37.8918 46.3879 37.0085 46.3879ZM45.0043 46.3879L41.8059 46.3879C40.9226 46.3879 40.2068 45.6721 40.2068 44.7888L40.2068 41.5903C40.2068 40.707 40.9226 39.9912 41.8059 39.9912L45.0043 39.9912C45.8876 39.9912 46.6034 40.707 46.6034 41.5903L46.6034 44.7888C46.6034 45.6721 45.8876 46.3879 45.0043 46.3879ZM53 46.3879L49.8018 46.3879C48.9183 46.3879 48.2025 45.6721 48.2025 44.7888L48.2025 41.5903C48.2025 40.707 48.9183 39.9912 49.8018 39.9912L53 39.9912C53.8833 39.9912 54.5991 40.707 54.5991 41.5903L54.5991 44.7888C54.5991 45.6721 53.8833 46.3879 53 46.3879ZM37.0085 41.5903L33.8102 41.5903L33.8102 44.7888L37.0085 44.7888L37.0085 41.5903ZM45.0043 41.5903L41.8059 41.5903L41.8059 44.7888L45.0043 44.7888L45.0043 41.5903ZM53 41.5903L49.8018 41.5903L49.8018 44.7888L53 44.7888L53 41.5903ZM59.0769 43.7791L60.1552 42.6003L65.0593 47.0955C66.5444 48.4604 67.3904 50.3838 67.3925 52.4006L67.3925 71.9744L65.7933 71.9744L65.7933 52.4006C65.7928 50.8325 65.1349 49.3362 63.9805 48.2742L59.0769 43.7791ZM37.0085 54.3838L33.8102 54.3838C32.9269 54.3838 32.2111 53.668 32.2111 52.7847L32.2111 49.5864C32.2111 48.7029 32.9269 47.9871 33.8102 47.9871L37.0085 47.9871C37.8918 47.9871 38.6077 48.7029 38.6077 49.5864L38.6077 52.7847C38.6077 53.668 37.8918 54.3838 37.0085 54.3838ZM45.0043 54.3838L41.8059 54.3838C40.9226 54.3838 40.2068 53.668 40.2068 52.7847L40.2068 49.5864C40.2068 48.7029 40.9226 47.9871 41.8059 47.9871L45.0043 47.9871C45.8876 47.9871 46.6034 48.7029 46.6034 49.5864L46.6034 52.7847C46.6034 53.668 45.8876 54.3838 45.0043 54.3838ZM37.0085 49.5864L33.8102 49.5864L33.8102 52.7847L37.0085 52.7847L37.0085 49.5864ZM45.0043 49.5864L41.8059 49.5864L41.8059 52.7847L45.0043 52.7847L45.0043 49.5864ZM37.0085 62.3794L33.8102 62.3794C32.9269 62.3794 32.2111 61.6636 32.2111 60.7803L32.2111 57.582C32.2111 56.6985 32.9269 55.9827 33.8102 55.9827L37.0085 55.9827C37.8918 55.9827 38.6077 56.6985 38.6077 57.582L38.6077 60.7803C38.6077 61.6636 37.8918 62.3794 37.0085 62.3794ZM45.0043 62.3794L41.8059 62.3794C40.9226 62.3794 40.2068 61.6636 40.2068 60.7803L40.2068 57.582C40.2068 56.6985 40.9226 55.9827 41.8059 55.9827L45.0043 55.9827C45.8876 55.9827 46.6034 56.6985 46.6034 57.582L46.6034 60.7803C46.6034 61.6636 45.8876 62.3794 45.0043 62.3794ZM37.0085 57.582L33.8102 57.582L33.8102 60.7803L37.0085 60.7803L37.0085 57.582ZM45.0043 57.582L41.8059 57.582L41.8059 60.7803L45.0043 60.7803L45.0043 57.582ZM42.6057 67.1768L44.2048 67.1768L44.2048 68.7761L42.6057 68.7761L42.6057 67.1768Z" clip-rule="evenodd" fill="#495567" fill-opacity="1.000000" fill-rule="evenodd"/>
</svg>
