<svg width="96.000000" height="96.000000" viewBox="0 0 96 96" fill="none" xmlns="http://www.w3.org/2000/svg" xmlns:xlink="http://www.w3.org/1999/xlink">
	<desc>
			Created with Pixso.
	</desc>
	<defs/>
	<circle id="Oval Copy 3" cx="48.000000" cy="48.000000" r="48.000000" fill="#FCB72B" fill-opacity="1.000000"/>
	<circle id="Oval Copy 3" cx="48.000000" cy="48.000000" r="48.000000" stroke="#979797" stroke-opacity="0" stroke-width="0.000000"/>
	<path id="Path" d="M45.0698 62.301C44.8521 62.301 44.6389 62.3896 44.4851 62.5432C44.3314 62.697 44.2429 62.9104 44.2429 63.1279C44.2429 63.3452 44.3314 63.5588 44.4851 63.7124C44.6389 63.8662 44.8521 63.9548 45.0698 63.9548C45.2872 63.9548 45.5004 63.8662 45.6544 63.7124C45.8081 63.5588 45.8966 63.3462 45.8966 63.1279C45.8966 62.9104 45.8081 62.697 45.6544 62.5432C45.5004 62.3896 45.2872 62.301 45.0698 62.301Z" fill="#000000" fill-opacity="1.000000" fill-rule="nonzero"/>
	<path id="Shape" d="M59.6121 39.7131L61.5391 48.4189C65.8654 48.5786 69.3359 52.1482 69.3359 56.5129C69.3359 56.9695 68.9658 57.3396 68.509 57.3396L67.1564 57.3396C67.3918 57.9126 67.5168 58.5303 67.5168 59.1614C67.5168 61.8059 65.3654 63.9573 62.7209 63.9573C62.689 63.9573 62.6573 63.9556 62.6254 63.9546L48.3773 63.9546C47.9205 63.9546 47.5504 63.5845 47.5504 63.1279C47.5504 62.6714 47.9205 62.301 48.3773 62.301L59.1005 62.301C58.3691 61.4592 57.925 60.3613 57.925 59.1614C57.925 58.5303 58.05 57.9126 58.2855 57.3396L57.2384 57.3396C56.4758 58.3721 55.259 58.9961 53.957 58.9961L42.0326 58.9961C42.0433 59.0493 42.0491 59.105 42.0491 59.1614C42.0491 61.8059 39.8976 63.9573 37.2532 63.9573C37.2213 63.9573 37.1896 63.9556 37.1576 63.9546L27.8269 63.9546C27.3701 63.9546 27 63.5845 27 63.1279C27 62.6714 27.3701 62.301 27.8269 62.301L33.6328 62.301C32.9015 61.4592 32.4574 60.3613 32.4574 59.1614C32.4574 59.105 32.4631 59.0493 32.4739 58.9961L27.8269 58.9961C27.3701 58.9961 27 58.626 27 58.1692L27 57.5442C27 53.9463 28.5155 50.6963 30.9415 48.3979L29.1105 46.5669C27.9176 46.3875 27 45.356 27 44.114L27 39.8125C27 39.4861 27.0204 39.1641 27.0598 38.8474C27.0598 38.8425 27.0591 38.8379 27.0591 38.8325C27.0591 38.7456 27.0726 38.6621 27.0975 38.5833C27.6886 34.8804 30.9044 32.0413 34.7714 32.0413L40.1056 32.0413C41.4731 32.0413 42.5862 33.1541 42.5862 34.522L42.5862 41.7751C42.845 41.6833 43.123 41.6331 43.4131 41.6331L46.4312 41.6331C47.7988 41.6331 48.9119 42.7456 48.9119 44.1135C48.9119 45.0312 48.4105 45.8335 47.6676 46.2629C47.8546 46.6125 47.9612 47.012 47.9612 47.4353L47.9612 54.0344L51.5342 54.0344C52.7271 54.0344 53.8265 53.386 54.4034 52.342C54.6702 51.8591 54.8116 51.312 54.812 50.7603L54.8162 48.0125C54.8169 47.5564 55.187 47.187 55.6431 47.187L55.644 47.187C56.1003 47.1875 56.47 47.5576 56.47 48.0139L56.47 48.0151L56.4658 50.7622C56.4651 51.592 56.2523 52.415 55.8508 53.1416C54.9832 54.7124 53.3291 55.6885 51.5342 55.6885L47.1344 55.6885C46.6776 55.6885 46.3075 55.3184 46.3075 54.8616L46.3075 47.4355C46.3075 46.9724 45.9305 46.5955 45.4677 46.5955L39.6021 46.5955C33.6328 46.5955 28.7635 51.3979 28.6556 57.3423L30.354 57.3423C30.5691 55.5176 31.4922 53.8601 32.9609 52.7051L32.9658 52.7012C34.1993 51.7329 35.6819 51.2209 37.2532 51.2209C40.8046 51.2209 43.74 53.8994 44.1505 57.3423L53.957 57.3423C54.8314 57.3423 55.6409 56.8691 56.0701 56.1074L59.9984 49.1106L57.9229 39.7324L56.4758 39.7324L56.4758 41.3989C56.4758 41.8555 56.1056 42.2256 55.6489 42.2256C55.1921 42.2256 54.822 41.8555 54.822 41.3989L54.822 39.7324L50.5659 39.7324C49.3805 39.7324 48.416 38.7681 48.416 37.5825C48.416 36.3972 49.3805 35.4326 50.5659 35.4326L52.5259 35.4326C52.8246 34.6599 53.5753 34.1096 54.4521 34.1096L59.3334 34.1096C59.9484 34.1096 60.501 34.3804 60.8795 34.8083C61.2675 34.5569 61.7294 34.4102 62.2249 34.4102L63.8785 34.4102C64.3353 34.4102 64.7054 34.7803 64.7054 35.2371L64.7054 38.5444C64.7054 39.0012 64.3353 39.3713 63.8785 39.3713L62.2249 39.3713C61.7435 39.3713 61.2942 39.2332 60.9135 38.9951C60.5908 39.3782 60.1321 39.6426 59.6121 39.7131ZM43.4131 43.2871L46.4312 43.2871C46.887 43.2871 47.2581 43.658 47.2581 44.114C47.2581 44.5696 46.887 44.9409 46.4312 44.9409L43.4131 44.9409C42.957 44.9409 42.5862 44.5696 42.5862 44.114C42.5862 43.658 42.957 43.2871 43.4131 43.2871ZM28.6537 39.8125C28.6537 39.7615 28.6564 39.7109 28.6576 39.6599L37.7058 39.6599C38.1625 39.6599 38.5326 39.2896 38.5326 38.833C38.5326 38.3762 38.1625 38.0061 37.7058 38.0061L28.9264 38.0061C29.699 35.512 32.0269 33.6953 34.7714 33.6953L40.1053 33.6953C40.5614 33.6953 40.9321 34.0662 40.9321 34.5222L40.9321 44.114C40.9321 44.5696 40.5614 44.9409 40.1053 44.9409L29.4803 44.9409C29.0245 44.9409 28.6537 44.5696 28.6537 44.114L28.6537 39.8125ZM31.4771 46.5945L33.3691 46.5945C32.9719 46.8213 32.5885 47.0696 32.2196 47.3372L31.4771 46.5945ZM40.3954 59.1614C40.3954 60.8833 39.0029 62.2854 37.2852 62.3025C37.2745 62.3022 37.2639 62.301 37.2532 62.301L37.158 62.301C35.4694 62.2502 34.1111 60.8621 34.1111 59.1614C34.1111 59.105 34.1053 59.0493 34.0946 58.9961L40.4119 58.9961C40.4011 59.0493 40.3954 59.105 40.3954 59.1614ZM32.0226 57.3423C32.2274 56.0286 32.9174 54.842 33.9829 54.0051C33.9855 54.0034 33.9877 54.0012 33.9904 53.9995C34.929 53.2639 36.0571 52.8745 37.2532 52.8745C39.8915 52.8745 42.085 54.8142 42.4832 57.3423L32.0226 57.3423ZM62.2249 36.064L63.0516 36.064L63.0516 37.7175L62.2249 37.7175C61.7687 37.7175 61.3979 37.3469 61.3979 36.8906C61.3979 36.4351 61.7687 36.064 62.2249 36.064ZM50.0698 37.5825C50.0698 37.3091 50.2924 37.0864 50.5659 37.0864L52.3876 37.0864L52.3876 37.668C52.3876 37.8086 52.4019 37.946 52.4286 38.0786L50.5659 38.0786C50.2924 38.0786 50.0698 37.8562 50.0698 37.5825ZM55.6489 38.0786L54.4521 38.0786C54.2258 38.0786 54.0414 37.8945 54.0414 37.668L54.0414 36.1743C54.0414 35.948 54.2258 35.7634 54.4521 35.7634L59.3334 35.7634C59.5598 35.7634 59.7441 35.948 59.7441 36.1743L59.7441 37.668C59.7441 37.8945 59.5598 38.0786 59.3334 38.0786L55.6489 38.0786ZM65.863 59.1614C65.863 60.8833 64.4706 62.2854 62.7529 62.3025C62.7422 62.3022 62.7316 62.301 62.7209 62.301L62.6256 62.301C60.937 62.2502 59.5789 60.8621 59.5789 59.1614C59.5789 58.5044 59.7836 57.8694 60.1609 57.3396L65.281 57.3396C65.6583 57.8694 65.863 58.5044 65.863 59.1614ZM58.2031 55.686L61.3563 50.0701C64.5762 50.1292 67.2274 52.5596 67.6292 55.686L58.2031 55.686Z" clip-rule="evenodd" fill="#495567" fill-opacity="1.000000" fill-rule="evenodd"/>
	<path id="Path" d="M55.6489 45.5332C56.1056 45.5332 56.4758 45.1631 56.4758 44.7063C56.4758 44.2495 56.1056 43.8794 55.6489 43.8794L55.646 43.8794C55.1893 43.8794 54.8204 44.2495 54.8204 44.7063C54.8204 45.1631 55.1923 45.5332 55.6489 45.5332Z" fill="#000000" fill-opacity="1.000000" fill-rule="nonzero"/>
</svg>
