<svg width="96.000000" height="96.000000" viewBox="0 0 96 96" fill="none" xmlns="http://www.w3.org/2000/svg" xmlns:xlink="http://www.w3.org/1999/xlink">
	<desc>
			Created with Pixso.
	</desc>
	<defs/>
	<circle id="Oval Copy 4" cx="48.000000" cy="48.000000" r="48.000000" fill="#FCB72B" fill-opacity="1.000000"/>
	<circle id="Oval Copy 4" cx="48.000000" cy="48.000000" r="48.000000" stroke="#979797" stroke-opacity="0" stroke-width="0.000000"/>
	<path id="Combined Shape" d="M66 46L64.1714 46L67.9834 62.5166C67.9949 62.5664 68.0005 62.6167 68.0005 62.6667C68.0005 62.8159 67.9502 62.9626 67.8553 63.0818C67.7289 63.241 67.5366 63.3335 67.3334 63.3333L66.6667 63.3333C66.6667 65.9106 64.5774 68 62 68C59.4227 68 57.3334 65.9106 57.3334 63.3333L45.3334 63.3333C45.3334 65.9106 43.244 68 40.6667 68C38.0894 68 36 65.9106 36 63.3333L28.6667 63.3333C28.2985 63.3333 28 63.0349 28 62.6667L28 60C28 59.6318 28.2985 59.3333 28.6667 59.3333L32 59.3333L32 58L30 58C29.6318 58 29.3334 57.7014 29.3334 57.3333L29.3334 54.6667C29.3334 54.2986 29.6318 54 30 54L32.0533 54C32.3845 51.7061 34.349 50.0027 36.6667 50L38.6667 50L38.6667 43.3333L37.3334 43.3333L37.3334 45.3333C37.3334 46.438 36.438 47.3333 35.3334 47.3333L28.6667 47.3333C28.3971 47.3333 28.1541 47.1709 28.0509 46.9219C28.0167 46.8394 28.0001 46.7527 28.0001 46.6667C28.0001 46.4934 28.0679 46.3228 28.1953 46.1953L29.724 44.6667L28.1953 43.1379C28.0679 43.0105 28.0001 42.8401 28.0001 42.6665C28.0001 42.5806 28.0167 42.4941 28.0509 42.4116C28.1541 42.1626 28.3971 42 28.6667 42L33.3334 42L33.3334 40C33.3334 38.8955 34.2288 38 35.3334 38L38.6667 38L38.6667 30.6667C38.6667 29.1938 39.8606 28 41.3334 28L44 28C45.4728 28 46.6667 29.1938 46.6667 30.6667L46.6667 41.4792L48.7487 42L54 42C54.3682 42 54.6667 42.2986 54.6667 42.6667L54.6667 45.3333C54.6667 45.7014 54.3682 46 54 46L48.6667 46C48.6121 46 48.5576 45.9932 48.5046 45.98L46.6667 45.5208L46.6667 47.3333L54 47.3333C54.3682 47.3333 54.6667 47.6318 54.6667 48L54.6667 55.3333C55.7712 55.3333 56.6667 56.2288 56.6667 57.3333L56.6667 58L58.6667 58L58.6667 44.0151C58.6586 45.1128 57.7664 46 56.6667 46C55.5621 46 54.6667 45.1045 54.6667 44C54.6667 42.8955 55.5621 42 56.6667 42C57.7664 42 58.6586 42.8872 58.6667 43.9849L58.6667 40.1572L57.588 38L54 38C53.6318 38 53.3334 37.7014 53.3334 37.3333L53.3334 34.6667C53.3334 34.2986 53.6318 34 54 34L58 34C58.3682 34 58.6667 34.2986 58.6667 34.6667L58.6667 37.176L59.7454 39.3333L66 39.3333C66.3682 39.3333 66.6667 39.6318 66.6667 40L66.6667 45.3333C66.6667 45.7014 66.3682 46 66 46ZM41.3334 29.3333C40.5969 29.3333 40 29.9302 40 30.6667L40 33.3333L42 33.3333L42 32C42 31.6318 42.2985 31.3333 42.6667 31.3333L45.3334 31.3333L45.3334 30.6667C45.3334 29.9302 44.7365 29.3333 44 29.3333L41.3334 29.3333ZM28 32.6667L36.6666 32.6667L36.6666 34L28 34L28 32.6667ZM42.6667 34.6667L40 34.6667L40 35.7708L45.3334 34.1707L45.3334 32.6667L43.3334 32.6667L43.3334 34C43.3334 34.3682 43.0349 34.6667 42.6667 34.6667ZM29.3334 35.3333L37.3334 35.3333L37.3334 36.6667L29.3334 36.6667L29.3334 35.3333ZM54.6667 36.6667L57.3334 36.6667L57.3334 35.3333L54.6667 35.3333L54.6667 36.6667ZM45.3334 35.5627L40 37.1626L40 38.6667L45.3334 38.6667L45.3334 35.5627ZM34.6667 40L34.6667 42L38.6667 42L38.6667 39.3333L35.3334 39.3333C34.9652 39.3333 34.6667 39.6318 34.6667 40ZM45.3334 40L40 40L40 47.3333L45.3334 47.3333L45.3334 45.1873L43.1714 44.6467C42.8748 44.5723 42.6667 44.3057 42.6667 44L42.6667 41.3333C42.6667 41.1279 42.7614 40.9341 42.9232 40.8079C43.0851 40.6814 43.2961 40.6367 43.4954 40.6868L45.3334 41.146L45.3334 40ZM62.6667 40.6667L60 40.6667L60 44.6667L62.6667 44.6667L62.6667 40.6667ZM65.3334 40.6667L64 40.6667L64 44.6667L65.3334 44.6667L65.3334 40.6667ZM48.6667 43.3333C48.6121 43.3333 48.5576 43.3267 48.5046 43.3132L44 42.1873L44 43.4792L48.7487 44.6667L53.3334 44.6667L53.3334 43.3333L48.6667 43.3333ZM35.3334 46C35.7015 46 36 45.7014 36 45.3333L36 43.3333L30.276 43.3333L31.1381 44.1953C31.2682 44.3254 31.3333 44.4961 31.3333 44.6667C31.3333 44.8372 31.2682 45.0078 31.1381 45.1379L30.276 46L35.3334 46ZM57.3334 44C57.3334 43.6318 57.0349 43.3333 56.6667 43.3333C56.2986 43.3333 56.0001 43.6318 56.0001 44C56.0001 44.3682 56.2986 44.6667 56.6667 44.6667C57.0349 44.6667 57.3334 44.3682 57.3334 44ZM60 57.3333L60 62L66.4921 62L62.8 46L60 46L60 56L61.3334 56L61.3334 57.3333L60 57.3333ZM53.3334 48.6667L40 48.6667L40 50L51.3334 50C51.7015 50 52 50.2986 52 50.6667L52 55.3333L53.3334 55.3333L53.3334 48.6667ZM46.6667 62L48 62L48 54.6667C47.9978 52.8267 46.5067 51.3354 44.6667 51.3333L36.6667 51.3333C34.8267 51.3354 33.3356 52.8267 33.3334 54.6667L33.3334 62L34.6667 62L34.6667 55.3333C34.6667 54.2288 35.5621 53.3333 36.6667 53.3333L44.6667 53.3333C45.7712 53.3333 46.6667 54.2288 46.6667 55.3333L46.6667 62ZM50.6667 51.3333L47.9266 51.3333C48.826 52.209 49.3334 53.4109 49.3334 54.666L49.3334 58L50.6667 58L50.6667 51.3333ZM36 62L45.3334 62L45.3334 55.3333C45.3334 54.9651 45.0349 54.6667 44.6667 54.6667L36.6667 54.6667C36.2985 54.6667 36 54.9651 36 55.3333L36 62ZM30.6667 56.6667L32 56.6667L32 55.3333L30.6667 55.3333L30.6667 56.6667ZM37.3334 56L38.6666 56L38.6666 57.3333L37.3334 57.3333L37.3334 56ZM40 56L41.3334 56L41.3334 57.3333L40 57.3333L40 56ZM42.6666 56L44 56L44 57.3333L42.6666 57.3333L42.6666 56ZM62.6666 56L64 56L64 57.3333L62.6666 57.3333L62.6666 56ZM55.3334 57.3333C55.3334 56.9651 55.0349 56.6667 54.6667 56.6667L52 56.6667L52 58L55.3334 58L55.3334 57.3333ZM49.3334 59.3333L49.3334 62L58.6667 62L58.6667 59.3333L49.3334 59.3333ZM29.3334 62L32 62L32 60.6667L29.3334 60.6667L29.3334 62ZM37.3334 63.3333C37.3356 65.1733 38.8267 66.6646 40.6667 66.6667C42.5067 66.6646 43.9978 65.1733 44 63.3333L42.6667 63.3333C42.6667 64.438 41.7712 65.3333 40.6667 65.3333C39.5621 65.3333 38.6667 64.438 38.6667 63.3333L37.3334 63.3333ZM41.3334 63.3333L40 63.3333C40 63.7014 40.2985 64 40.6667 64C41.0349 64 41.3334 63.7014 41.3334 63.3333ZM58.6667 63.3333C58.6689 65.1733 60.16 66.6646 62 66.6667C63.8401 66.6646 65.3312 65.1733 65.3334 63.3333L64 63.3333C64 64.438 63.1046 65.3333 62 65.3333C60.8955 65.3333 60 64.438 60 63.3333L58.6667 63.3333ZM62.6667 63.3333L61.3334 63.3333C61.3334 63.7014 61.6318 64 62 64C62.3682 64 62.6667 63.7014 62.6667 63.3333Z" clip-rule="evenodd" fill="#495567" fill-opacity="1.000000" fill-rule="evenodd"/>
</svg>
