<svg width="24.000000" height="19.503998" viewBox="0 0 24 19.504" fill="none" xmlns="http://www.w3.org/2000/svg" xmlns:xlink="http://www.w3.org/1999/xlink">
	<desc>
			Created with Pixso.
	</desc>
	<defs/>
	<path id="Path" d="M24 2.30899C23.1169 2.70099 22.168 2.965 21.1721 3.08401C22.189 2.47501 22.97 1.51001 23.3369 0.359985C22.386 0.924011 21.332 1.33401 20.21 1.55499C19.313 0.597992 18.032 0 16.616 0C13.437 0 11.1011 2.966 11.8191 6.04501C7.72803 5.84 4.1001 3.88 1.6709 0.901001C0.381104 3.11401 1.00195 6.009 3.19409 7.47501C2.38794 7.44901 1.62793 7.228 0.965088 6.85901C0.910889 9.14001 2.5459 11.274 4.91406 11.749C4.22095 11.937 3.46191 11.981 2.68994 11.833C3.31592 13.789 5.13403 15.212 7.29004 15.252C5.21997 16.875 2.61206 17.6 0 17.292C2.17896 18.689 4.76807 19.504 7.5481 19.504C16.6899 19.504 21.855 11.783 21.543 4.858C22.5049 4.16299 23.3401 3.29599 24 2.30899Z" fill="#FCB72B" fill-opacity="1.000000" fill-rule="nonzero"/>
</svg>
